<svg width="744" height="467" viewBox="0 0 744 467" fill="none" xmlns="http://www.w3.org/2000/svg">
<g clip-path="url(#clip0_458_2)">
<rect width="744" height="467" fill="#1E1E1E"/>
<path d="M275 483.5L288.455 435.73M242.5 436.344L262.047 406.952C254.875 401.916 245.914 397.383 236.993 393.633M110.709 370.388C120.729 363.923 143.02 367.584 165.557 373.027M165.557 373.027C180.789 376.706 196.134 381.199 207.877 383.93C210.981 384.652 214.673 385.666 218.711 386.934M165.557 373.027L160.14 391.379M218.711 386.934C210.36 384.466 193.793 381.696 194.334 390.363C194.876 399.03 193.713 424.54 188.5 448.257L191.287 434.038M218.711 386.934C224.348 388.704 230.66 390.971 236.993 393.633M191.287 389.347V418.464M191.287 418.464L170.297 402.213M191.287 418.464V434.038M191.287 434.038L149.983 436.344M124.59 437.762L139.487 436.93M139.487 436.93V421M139.487 436.93L149.983 436.344M149.983 436.344V448.257M236.993 393.633L252.567 353.46V341.948H230.899H267.464L279.991 346.688M297.935 294.211L322.988 302.675L331.791 275.59L306.737 266.787L305.383 270.512L239.363 248.505M239.363 248.505L235.639 254.599L233.269 265.772M239.363 248.505L247.827 225.144M247.827 225.144C232.937 221.556 213.958 214.127 198.397 208.862M247.827 225.144L267.464 232.165M313.17 248.505L267.464 232.165M170.297 204.153C173.322 201.37 183.511 203.912 196.366 208.181M196.366 208.181L197.382 200.243M196.366 208.181C196.703 208.293 197.041 208.406 197.382 208.52M196.366 208.181L197.382 208.52M198.397 192.304L197.382 200.243M197.382 200.243L209.231 201.106M197.382 208.52C197.718 208.633 198.057 208.747 198.397 208.862M198.397 208.862L176.052 256.969M267.464 232.165L270.511 192.304H330.775V194.674L357.522 198.744M408.645 206.523L419.817 240.041C448.482 237.897 508.25 231.103 518.001 221.082M408.645 206.523L430.99 179.777M408.645 206.523L379.867 202.144M518.001 221.082C516.872 218.825 513.938 213.633 511.229 210.925L594.516 157.77M518.001 221.082L600.731 167.589M642.93 124.591L647.332 137.457L600.731 167.589M642.93 124.591L621.94 131.024M642.93 124.591L668.661 117.481M642.93 124.591L637.476 107.663M357.522 101.049C347.853 100.996 338.838 100.943 330.775 100.892L357.522 101.049ZM357.522 101.049C408.119 101.326 476.604 101.591 520.032 101.452M357.522 101.049V126.961M357.522 198.744V126.961M357.522 198.744L379.867 202.144M330.775 153.03L415.755 155.4M415.755 155.4L439.454 145.582M415.755 155.4L430.99 179.777M430.99 179.777L449.611 171.393M495.656 150.661L518.001 126.961M495.656 150.661L468.57 162.856M495.656 150.661L504.36 173.344M518.001 126.961L520.032 101.452M518.001 126.961H544.07M520.032 101.452C528.4 101.425 535.838 101.383 542.039 101.323M544.07 126.961L542.039 101.323M544.07 126.961H458.075M357.522 126.961H458.075M542.039 101.323C547.451 101.271 551.921 101.206 555.243 101.125M458.075 126.961C456.721 138.805 455.502 163.207 461.461 166.057M461.461 166.057L449.611 171.393M461.461 166.057L468.57 162.856M449.611 171.393L459.429 194.674M449.611 171.393L468.57 162.856M468.57 162.856C470.94 166.691 476.29 174.563 478.727 175.376M506.828 179.777L504.36 173.344M504.36 173.344C512.969 170.974 531.205 164.542 535.267 157.77L542.039 167.589L560.998 155.4M594.516 157.77L600.731 167.589M594.516 157.77L578.303 134.748M555.243 101.125C557.977 101.058 559.933 100.981 560.998 100.892C567.001 100.392 576.844 95.5412 587.068 89.4202M555.243 101.125C553.618 104.832 569.462 124.408 577.588 133.732L578.303 134.748M578.303 134.748L565.399 143.212M587.068 89.4202C598.986 82.2848 611.421 73.4227 618.892 67.7126L633.112 94.1205L637.476 107.663M587.068 89.4202C592.565 98.2097 602.994 116.466 600.731 119.174L637.476 107.663M637.476 107.663L673.062 99.8761L702.179 82.6094M379.867 202.144L366.957 241.057M362.939 255.615L315.879 238.687L311.139 253.584L357.522 269.496L362.939 255.615ZM362.939 255.615L366.957 241.057M366.957 241.057L320.28 226.16M366.957 241.057L389.008 249.521M304.367 23.3608V35.8877M183.162 98.1833C192.874 100.766 203.108 101.796 212.955 101.922M209.231 39.6119C210.876 42.1095 213.251 46.5671 214.748 51.4616M215.664 63.9884C213.497 72.3848 212.955 92.7758 212.955 101.922M215.664 63.9884C216.661 60.1244 216.023 55.6342 214.748 51.4616M215.664 63.9884L240.379 71.0982V80.2394M212.955 101.922C221.978 102.037 230.675 101.394 238.348 100.494M214.748 51.4616L261.708 35.8877H304.367M304.367 35.8877V49.0916M274.912 23.3608V49.0916M274.912 49.0916H304.367M274.912 49.0916H258.323M304.367 49.0916V71.0982M258.323 49.0916C252.229 47.286 242.072 39.6119 242.072 28.1007M258.323 49.0916V71.0982M258.323 76.8538H304.367M258.323 76.8538V71.0982M258.323 76.8538L240.379 80.2394M304.367 76.8538V98.1833H317.571M304.367 76.8538V71.0982M304.367 71.0982H258.323M240.379 80.2394L238.348 100.494M238.348 100.494C244.252 99.8003 249.55 98.9542 253.922 98.1833H258.323M258.323 98.1833L255.614 150.661M258.323 98.1833H317.571M255.614 150.661L330.775 155.4V98.1833H317.571M255.614 150.661L219.388 157.77L179.776 153.03M317.571 98.1833L315.879 111.726L250.197 192.304M441.485 329.422L442.047 330.437M455.705 355.153L444.105 334.162M444.105 334.162L453.674 329.422M444.105 334.162L442.047 330.437M442.047 330.437L451.981 325.02M488.546 395.442H480.759L471.279 418.802L499.041 441.825L567 435M133.5 402.213C135.983 409.322 109.063 425.208 105 429C100.937 432.792 81.8782 430.58 68.9 429L69.0662 407.291M69.0662 375.466L110.709 374.112V369.372L69.0662 370.356M69.0662 375.466C63.92 372.487 57.6679 373.322 55.1851 374.112V369.372C60.6021 368.56 65.7934 369.711 67.7119 370.388L69.0662 370.356M69.0662 375.466V407.291M69.0662 407.291C72.7904 408.984 82.6764 411.354 92.427 407.291C102.178 403.228 112.741 403.341 116.804 403.906M69.0662 370.356V344.81M69.0662 344.81V319.265C68.9979 318.944 68.9426 318.605 68.9 318.249M69.0662 344.81L110.709 343.641M68.9 318.249C85.2064 318.023 118.09 318.52 119.173 322.312M68.9 318.249C68.0489 311.149 72.2152 297.294 77.6862 283.039M42.9968 268.142L77.6862 283.039M77.6862 283.039C82.8107 269.686 89.0799 255.983 93.4427 247.151L107.042 198.736M124.59 32.8406L124.407 36.7341M117.793 133.732L120.866 111.726L120.978 109.356M117.793 133.732L136.935 136.215M117.793 133.732L110.844 183.501M180.453 141.858L156.077 138.697M156.077 138.697L158.218 114.434M156.077 138.697L136.935 136.215M156.077 138.697C155.953 144.596 155.603 152.828 154.943 161.156M159.801 96.4904L158.218 114.434M158.218 114.434L139.598 111.895M120.978 109.356L139.598 111.895M120.978 109.356L122.177 83.9636M139.598 111.895L141.519 93.1048L136.935 136.215M136.935 136.215C135.958 137.871 135.099 145.624 134.405 155.062M148.29 193.658C144.064 192.11 138.379 190.111 132.716 188.262M148.29 193.658C151.725 190.317 153.799 175.594 154.943 161.156M148.29 193.658C148.722 193.763 149.175 193.879 149.644 194.004M110.844 183.501L110.371 186.887L107.042 198.736M110.844 183.501C111.092 181.721 121.862 184.717 132.716 188.262M169.281 208.181C172.104 201.739 158.127 196.269 149.644 194.004M132.716 188.262C132.963 180.705 133.45 169.339 134.122 159.125M125.945 141.858V155.062H134.405M134.405 155.062C134.307 156.387 134.213 157.745 134.122 159.125M134.122 159.125L154.943 161.156M107.042 198.736L138.472 212.279M138.472 212.279L149.644 194.004M138.472 212.279L119.851 249.521M123.056 65.3426C130.156 67.1839 139.929 69.5324 149.644 71.546M123.056 65.3426L123.639 52.9851M123.056 65.3426L100.214 60.8502M123.056 65.3426L122.177 83.9636M185.532 74.4838C183.633 77.5916 166.726 75.0865 149.644 71.546M168.942 32.8406L149.644 46.0446M149.644 46.0446L124.223 40.6276M149.644 46.0446V58.7953M149.644 71.546V58.7953M124.223 40.6276L123.639 52.9851M124.223 40.6276L124.407 36.7341M123.639 52.9851L149.644 58.7953M92.7656 30.1321L102.584 32.1807M124.407 36.7341L102.584 32.1807M52.4766 51.4616L54.508 38.9347M52.4766 51.4616L51.7995 69.0668M52.4766 51.4616L100.214 60.8502M100.214 60.8502L102.584 32.1807M100.214 60.8502L97.5055 78.8852M122.177 83.9636H109.017" stroke="#00C48E"/>
<path d="M270 430.5C299.231 383.981 288.926 397.122 288.655 372.152C288.612 368.21 291.048 364.483 293.923 361.785C313.85 343.08 370.794 265.613 396.118 257.985C433.36 246.768 504.12 250.875 545.086 220.405L669.677 137.118" stroke="#CB1FDA"/>
<path d="M124.5 438.5C120.776 403.628 98.4538 358.538 115.788 330.099C122.29 316.455 130.539 298.699 138.908 279.992M186.21 40.289V0H191.288L178.423 170.974C181.914 179.51 160.028 232.781 138.908 279.992M186.21 40.289C168.943 34.1949 162.916 31.0801 155.062 17.2667L124.591 0V33.5177M186.21 40.289H206.185L256.631 23.6994H330.776M330.776 23.6994H642.254M330.776 23.6994V194.674L295.232 302.337M286.086 419.818L260.693 406.953L279.36 350.413M286.086 419.818L288.117 436.069L300.644 410.338M286.086 419.818L300.644 410.338M300.644 410.338L324.005 389.686M324.005 389.686L360.231 380.206L385.962 381.899L568.109 288.456M324.005 389.686L313.171 380.206V350.413L385.962 270.173L422.188 255.615L522.403 240.38M568.109 288.456L607.043 226.837L744.5 152.692M568.109 288.456C577.701 287.327 610.429 289.268 664.599 306.061C698.794 300.982 732.312 268.413 744.5 262.725M568.109 288.456L568.612 293.534M522.403 240.38L531.882 245.12M522.403 240.38L544.071 226.837M531.882 245.12L544.071 226.837M531.882 245.12C535.945 262.386 550.3 298.883 579.281 309.447C621.714 330.099 684.665 376.458 715 383.5M544.071 226.837L683.559 134.071L741.791 102.585L738.067 97.8447L502.766 233.947L402.213 249.182C389.847 252.431 358.525 269.615 326.355 312.606M279.36 350.413C278.103 362.375 284.257 373.638 318.926 322.989C321.402 319.372 323.881 315.913 326.355 312.606M279.36 350.413L291.841 312.606M291.841 312.606C316.669 315.503 370.253 333.078 385.962 380.206C385.398 393.636 395.577 422.662 440.809 431.329L483.5 445L575.219 360.231L568.612 293.534M291.841 312.606L292.773 309.785M568.612 293.534C576.57 292.631 606.231 294.55 661.214 309.447C707.258 306.061 725.202 275.916 744.5 270.173M326.355 312.606C317.901 314.149 299.84 314.254 295.232 302.337M295.232 302.337L292.773 309.785M292.773 309.785C278.13 303.352 246 292.18 234.624 298.951C220.13 302.111 180.696 302.743 138.908 279.992M138.908 279.992C96.1035 246.925 8.39636 188.444 0 219.05" stroke="#00C48E" stroke-width="3"/>
</g>
<defs>
<clipPath id="clip0_458_2">
<rect width="744" height="467" fill="white"/>
</clipPath>
</defs>
</svg>
