<svg width="295" height="281" viewBox="0 0 295 281" fill="none" xmlns="http://www.w3.org/2000/svg">
<path fill-rule="evenodd" clip-rule="evenodd" d="M89.1716 39.1027C92.4489 37.0724 95.2347 35.3465 95.9371 34.6441C97.9371 32.6441 101.137 28.8441 99.9371 25.6441L94.4371 4.64407C91.8009 -3.26536 80.0212 1.32316 72.9028 5.66331C55.9452 16.0025 37.0783 32.106 27.9371 46.1441C16.4371 61.1438 1.93714 93.1438 0.437141 116.644C-1.09465 140.644 1.243 167.771 9.93714 187.644C23.9371 219.644 41.4374 241.144 75.4374 262.144C97.937 276.041 133.937 283.644 170.437 278.644C209.937 270.644 228.437 260.644 259.437 228.644C270.437 216.644 285.687 188.644 290.937 164.644C294.437 148.644 296.437 121.144 289.937 96.6438C282.437 72.6438 272.437 49.6438 253.437 31.1438C241.437 18.6438 217.337 2.14383 210.937 0.143832C208.437 -0.356168 201.937 0.143832 199.937 6.64383L195.437 26.1438C195.29 27.2447 195.35 28.9467 195.942 30.7119C197.281 34.71 201.118 36.9155 204.91 39.0947C206.11 39.7846 207.306 40.4719 208.416 41.2125C212.189 43.7289 215.696 46.1628 215.937 46.6438L191.437 157.644L163.937 75.6438H126.937L102.437 157.644L78.4371 46.1441C81.0957 44.1059 85.4505 41.408 89.1716 39.1027ZM44.937 90.1438C26.1962 141.644 39.937 183.644 72.937 215.144L44.937 90.1438ZM145.937 151.644L175.937 239.644C161.437 244.644 135.437 246.144 120.437 239.644L145.937 151.644ZM89.937 25.6438C79.937 32.1438 72.937 36.8105 64.937 43.1438L99.437 202.644L138.437 86.6438H155.437L194.437 204.644L229.437 43.1438C223.437 37.6438 212.937 30.6438 205.437 26.1438C203.837 25.3438 203.77 23.4772 203.937 22.6438L206.437 12.1438C206.937 9.64383 209.604 10.1438 210.437 10.6438C228.937 20.6438 253.437 40.7867 268.437 68.6438C275.437 81.6438 281.937 99.1438 283.437 116.644C284.904 133.764 284.52 151.144 279.937 167.644C277.437 176.644 274.937 183.644 267.937 197.644L255.437 188.644C260.937 176.144 264.687 163.644 266.437 156.644C270.437 140.644 268.294 120.644 266.437 107.644C263.937 90.1438 253.437 72.1438 242.937 57.6438L208.437 217.644H182.437L146.937 111.644L111.437 217.644H85.937L51.937 57.6438C48.7534 61.1812 46.821 64.4683 44.7236 68.0364C43.8563 69.5117 42.9608 71.035 41.937 72.6438C34.7893 83.8759 30.337 99.1438 27.437 113.644C25.037 125.644 25.6817 141.408 27.437 151.644C30.5 169.506 34.437 178.144 39.937 189.144L27.437 198.644C23.837 191.044 17.187 176.644 13.437 161.644C10.33 149.216 10.3752 140.225 10.4245 130.414C10.4307 129.173 10.437 127.919 10.437 126.644C10.437 113.644 12.437 106.644 16.437 92.6438C18.937 82.1438 24.437 71.3105 31.437 59.6438C37.437 49.6438 44.437 41.6438 54.437 32.1438C59.3113 27.2695 72.2636 18.1187 84.9557 10.7132C85.6077 10.3328 86.3765 9.93466 87.0873 10.1885C88.5902 10.7251 89.1124 12.4508 89.5342 13.9898C89.7105 14.633 89.9007 15.3056 90.0904 15.9762C90.7674 18.3699 91.437 20.7373 91.437 21.6438C91.437 23.1438 91.437 24.6688 89.937 25.6438ZM248.937 89.6438C269.437 140.644 250.937 188.644 223.937 212.644L248.937 89.6438ZM43.5956 217.565L55.1086 209.425L52.0705 205.4L38.096 210.279L37.7377 209.805L49.2662 201.685L46.2126 197.64L31.2437 208.713L35.9176 214.904L47.5197 210.488L37.5846 217.113L42.2585 223.304L60.9665 217.185L57.9129 213.14L43.954 218.039L43.5956 217.565ZM76.5941 230.397L61.9597 242.359L58.4172 239.3L63.7116 234.989L59.8952 231.693L54.6203 236.021L51.0778 232.962L65.7319 221.017L69.2548 224.059L63.0601 229.096L66.8766 232.392L73.0713 227.355L76.5941 230.397ZM70.1999 248.52L81.3274 255.205L84.0255 252.12L76.8879 247.832L78.8893 245.505L84.7856 249.048L87.4836 245.962L81.5874 242.42L83.895 239.734L91.0325 244.022L93.7306 240.937L82.6031 234.252L70.1999 248.52ZM101.579 264.244L89.5174 259.444L99.452 243.359L111.513 248.158L109.349 251.639L101.613 248.561L99.7695 251.584L106.161 254.127L103.996 257.608L97.6054 255.065L96.0063 257.685L103.743 260.763L101.579 264.244ZM110.353 267.071L121.858 269.655L123.448 265.878L116.485 264.314L122.178 250.645L117.636 249.625L110.353 267.071ZM140.604 259.663L145.349 253.388L149.996 253.661L141.374 264.63L139.69 271.706L135.017 271.432L136.702 264.356L133.449 252.69L138.38 252.979L140.01 259.628L140.604 259.663ZM182.764 262.497L179.731 248.727L174.843 249.964L173.915 264.737L173.338 264.883L170.33 251.107L165.417 252.351L169.811 270.444L177.331 268.54L177.765 256.133L180.014 267.861L187.534 265.957L189.157 246.341L184.243 247.585L183.34 262.351L182.764 262.497ZM200.607 240.237C204.338 238.41 206.951 239.021 208.444 242.071C208.694 242.582 208.909 243.159 209.089 243.8L210.55 248.843C211.233 251.177 211.208 253.166 210.478 254.81C209.747 256.453 208.259 257.825 206.014 258.924C203.769 260.024 201.951 260.271 200.561 259.665C199.608 259.249 198.825 258.413 198.211 257.159C197.938 256.602 197.7 255.96 197.498 255.234L196.037 250.191C194.733 245.685 196.256 242.367 200.607 240.237ZM206.441 253.504C206.173 254.134 205.653 254.638 204.879 255.018C203.578 255.654 202.662 255.431 202.132 254.347C201.927 253.929 201.761 253.511 201.633 253.094L200.24 248.248C199.677 246.316 200.186 244.944 201.766 244.132C203.035 243.511 203.977 243.827 204.591 245.081C204.712 245.329 204.826 245.619 204.931 245.951L206.325 250.797C206.669 251.972 206.708 252.874 206.441 253.504ZM222.57 227.877C221.394 227.664 220.011 228.134 218.419 229.286L212.344 233.684L220.603 250.691L224.624 247.779L221.404 241.523L222.702 240.583L228.541 244.943L232.772 241.88L226.438 237.144C226.769 236.543 226.935 235.816 226.935 234.964C226.95 234.103 226.712 233.157 226.223 232.128L225.333 230.282C225.167 229.935 224.982 229.621 224.78 229.342C224.194 228.532 223.457 228.044 222.57 227.877ZM219.465 233.509L217.894 234.646L219.988 238.685L221.454 237.624C222.194 237.088 222.598 236.529 222.667 235.948C222.725 235.352 222.542 234.761 222.117 234.175C221.299 233.043 220.414 232.822 219.465 233.509ZM247.469 228.044L239.161 236.411L228.263 220.962L231.543 217.659L240.088 229.752L245.117 224.688L247.469 228.044ZM248.67 198.911C247.184 199.043 245.789 200.031 244.486 201.876L240.308 207.789L253.62 221.215L257.962 215.069C259.195 213.323 259.721 211.562 259.539 209.788C259.358 208.013 258.571 206.423 257.179 205.017L253.051 200.866C252.678 200.498 252.302 200.179 251.922 199.91C250.866 199.164 249.782 198.831 248.67 198.911ZM246.841 205.534L245.871 206.907L253.428 214.494L254.846 212.488C255.313 211.826 255.5 211.188 255.407 210.573C255.31 209.934 254.902 209.256 254.185 208.538L251.154 205.479C250.884 205.203 250.622 204.976 250.369 204.797C249.031 203.852 247.855 204.098 246.841 205.534Z" fill="#00C48E"/>
</svg>
